<svg xmlns="http://www.w3.org/2000/svg" xmlns:xlink="http://www.w3.org/1999/xlink" width="1920" zoomAndPan="magnify" viewBox="0 0 1440 299.999988" height="400" preserveAspectRatio="xMidYMid meet" version="1.0"><defs><g/></defs><g fill="rgb(30.198669%, 48.629761%, 17.248535%)" fill-opacity="1"><g transform="translate(11.670108, 223.520684)"><g><path d="M 129.3125 -99.359375 C 108.40625 -94.234375 87.289062 -92.007812 65.96875 -92.6875 C 63.8125 -92.957031 60.609375 -93.597656 56.359375 -94.609375 C 52.109375 -95.617188 49.847656 -97.40625 49.578125 -99.96875 C 50.390625 -101.59375 53.492188 -102.570312 58.890625 -102.90625 C 64.285156 -103.238281 67.859375 -103.34375 69.609375 -103.21875 C 84.859375 -103.75 99.835938 -105.5 114.546875 -108.46875 C 117.378906 -109.414062 121.523438 -110.289062 126.984375 -111.09375 C 132.453125 -111.90625 135.523438 -110.359375 136.203125 -106.453125 C 135.253906 -102.265625 132.957031 -99.898438 129.3125 -99.359375 Z M 144.09375 -58.6875 C 148.40625 -60.039062 154.40625 -60.242188 162.09375 -59.296875 C 169.789062 -58.347656 171.75 -54.503906 167.96875 -47.765625 C 166.351562 -46.273438 162.878906 -45.394531 157.546875 -45.125 C 152.222656 -44.851562 148.410156 -44.785156 146.109375 -44.921875 C 130.460938 -45.054688 114.945312 -43.773438 99.5625 -41.078125 C 80.269531 -35.546875 60.707031 -32.039062 40.875 -30.5625 C 36.695312 -29.882812 34.066406 -31.367188 32.984375 -35.015625 C 33.523438 -37.304688 36.019531 -39.023438 40.46875 -40.171875 C 44.925781 -41.316406 48.164062 -42.023438 50.1875 -42.296875 C 65.300781 -45.804688 80.546875 -48.910156 95.921875 -51.609375 C 112.242188 -52.816406 128.300781 -55.175781 144.09375 -58.6875 Z M 144.09375 -58.6875 "/></g></g></g><g fill="rgb(30.198669%, 48.629761%, 17.248535%)" fill-opacity="1"><g transform="translate(214.049702, 223.520684)"><g><path d="M 98.359375 -139.4375 C 103.347656 -139.4375 106.144531 -136.875 106.75 -131.75 C 107.351562 -126.625 107.65625 -122.441406 107.65625 -119.203125 C 111.300781 -120.679688 117.609375 -123.070312 126.578125 -126.375 C 135.554688 -129.6875 140.921875 -129.65625 142.671875 -126.28125 C 140.785156 -120.070312 136.128906 -116.09375 128.703125 -114.34375 L 128.703125 -114.546875 L 109.6875 -107.46875 L 109.6875 -78.3125 C 121.019531 -81.007812 132.21875 -83.910156 143.28125 -87.015625 L 143.078125 -87.015625 C 146.992188 -88.367188 153.164062 -89.890625 161.59375 -91.578125 C 170.03125 -93.265625 175.257812 -92.421875 177.28125 -89.046875 L 177.28125 -89.25 C 178.09375 -85.738281 176.472656 -82.800781 172.421875 -80.4375 C 168.378906 -78.082031 164.738281 -77.242188 161.5 -77.921875 C 156.90625 -78.722656 148.941406 -77.4375 137.609375 -74.0625 C 126.273438 -70.695312 117.84375 -68 112.3125 -65.96875 L 112.3125 -66.171875 C 112.3125 -56.460938 112.273438 -41.351562 112.203125 -20.84375 C 112.140625 -0.332031 111.234375 12.6875 109.484375 18.21875 C 105.171875 20.644531 100.484375 20 95.421875 16.28125 C 90.359375 12.570312 86.410156 8.96875 83.578125 5.46875 L 83.578125 5.671875 C 79.671875 1.484375 75.691406 -2.695312 71.640625 -6.875 L 71.84375 -6.875 C 66.445312 -12.132812 62.128906 -18.070312 58.890625 -24.6875 C 59.835938 -27.382812 65.066406 -24.890625 74.578125 -17.203125 C 84.085938 -9.515625 91.335938 -4.457031 96.328125 -2.03125 L 97.140625 -2.21875 C 97.546875 -9.375 98.351562 -19.898438 99.5625 -33.796875 C 100.78125 -47.691406 100.78125 -57.40625 99.5625 -62.9375 C 98.488281 -63.34375 97.140625 -63.003906 95.515625 -61.921875 C 90.390625 -60.441406 85.398438 -58.757812 80.546875 -56.875 C 66.648438 -52.144531 52.414062 -48.160156 37.84375 -44.921875 C 33.789062 -42.898438 30.285156 -43.441406 27.328125 -46.546875 C 24.085938 -50.859375 24.925781 -54.363281 29.84375 -57.0625 C 34.769531 -59.769531 38.3125 -60.242188 40.46875 -58.484375 C 49.238281 -59.296875 59.117188 -61.488281 70.109375 -65.0625 C 81.109375 -68.632812 90.457031 -71.632812 98.15625 -74.0625 C 97.75 -83.375 97.003906 -92.6875 95.921875 -102 C 91.066406 -99.570312 82.128906 -96.5 69.109375 -92.78125 C 56.085938 -89.070312 48.769531 -90.523438 47.15625 -97.140625 C 48.769531 -101.316406 52.207031 -103.273438 57.46875 -103.015625 C 70.019531 -104.765625 82.164062 -108.066406 93.90625 -112.921875 L 93.90625 -112.71875 C 95.519531 -117.3125 95.550781 -121.125 94 -124.15625 C 92.445312 -127.1875 92.144531 -130.726562 93.09375 -134.78125 C 85.269531 -130.601562 77.242188 -126.894531 69.015625 -123.65625 C 67.253906 -124.457031 65.632812 -125.46875 64.15625 -126.6875 L 64.15625 -126.484375 C 61.59375 -128.367188 61.1875 -130.394531 62.9375 -132.5625 L 62.9375 -132.359375 C 64.6875 -133.835938 69.675781 -137.039062 77.90625 -141.96875 C 86.144531 -146.894531 91.878906 -150.4375 95.109375 -152.59375 C 108.878906 -160.957031 116.84375 -162.707031 119 -157.84375 C 121.15625 -152.988281 114.273438 -146.851562 98.359375 -139.4375 Z M 98.359375 -139.4375 "/></g></g></g><g fill="rgb(30.198669%, 48.629761%, 17.248535%)" fill-opacity="1"><g transform="translate(416.429296, 223.520684)"><g><path d="M 90.46875 -158.65625 C 91.40625 -152.457031 90.863281 -145.847656 88.84375 -138.828125 C 91.8125 -138.015625 95.117188 -138.421875 98.765625 -140.046875 C 101.328125 -140.722656 105.203125 -141.160156 110.390625 -141.359375 C 115.585938 -141.554688 119.265625 -140.984375 121.421875 -139.640625 C 124.523438 -134.648438 121.757812 -126.179688 113.125 -114.234375 C 104.488281 -102.296875 99.09375 -93.085938 96.9375 -86.609375 C 113.9375 -92.679688 131.476562 -95.445312 149.5625 -94.90625 C 156.4375 -95.582031 162.570312 -94.367188 167.96875 -91.265625 C 170.664062 -83.710938 169.789062 -75.753906 165.34375 -67.390625 C 163.050781 -56.191406 159.40625 -43.945312 154.40625 -30.65625 C 149.414062 -17.363281 142.601562 -6.738281 133.96875 1.21875 C 124.664062 6.070312 116.234375 0.335938 108.671875 -15.984375 C 101.117188 -32.304688 97.410156 -44.382812 97.546875 -52.21875 C 98.492188 -60.175781 100.445312 -60.78125 103.40625 -54.03125 C 105.03125 -48.90625 108.472656 -41.113281 113.734375 -30.65625 C 118.992188 -20.195312 123.378906 -13.617188 126.890625 -10.921875 C 128.367188 -10.785156 130.625 -13.046875 133.65625 -17.703125 C 136.695312 -22.359375 138.691406 -25.566406 139.640625 -27.328125 C 142.066406 -32.453125 144.96875 -40.8125 148.34375 -52.40625 C 151.71875 -64.007812 153.539062 -72.445312 153.8125 -77.71875 C 151.78125 -81.351562 148.269531 -82.835938 143.28125 -82.171875 C 126.28125 -82.296875 110.222656 -78.3125 95.109375 -70.21875 C 94.710938 -49.71875 94.984375 -29.144531 95.921875 -8.5 C 96.597656 -1.613281 97.070312 5.265625 97.34375 12.140625 C 95.851562 20.234375 91.804688 22.394531 85.203125 18.625 C 83.710938 13.894531 83.066406 0.332031 83.265625 -22.0625 C 83.472656 -44.457031 82.160156 -59.296875 79.328125 -66.578125 C 77.984375 -67.117188 74.238281 -66.273438 68.09375 -64.046875 C 61.957031 -61.828125 57.945312 -60.3125 56.0625 -59.5 C 53.769531 -58.6875 49.414062 -57.46875 43 -55.84375 C 36.59375 -54.226562 32.445312 -53.351562 30.5625 -53.21875 C 22.863281 -56.050781 23.332031 -60.910156 31.96875 -67.796875 C 35.476562 -69.273438 38.851562 -70.960938 42.09375 -72.859375 C 51.132812 -75.148438 63.476562 -77.710938 79.125 -80.546875 C 78.851562 -94.035156 77.84375 -107.390625 76.09375 -120.609375 C 69.476562 -117.242188 62.53125 -115.085938 55.25 -114.140625 C 46.207031 -117.378906 45.597656 -121.898438 53.421875 -127.703125 C 60.710938 -129.859375 68.132812 -131.878906 75.6875 -133.765625 C 75.6875 -137.953125 76.796875 -145.203125 79.015625 -155.515625 C 81.242188 -165.835938 85.0625 -166.816406 90.46875 -158.453125 Z M 91.265625 -125.265625 C 90.460938 -123.378906 90.023438 -118.828125 89.953125 -111.609375 C 89.890625 -104.390625 89.722656 -99.226562 89.453125 -96.125 C 90.929688 -98.28125 93.757812 -103.742188 97.9375 -112.515625 C 102.125 -121.285156 104.554688 -126.75 105.234375 -128.90625 C 100.515625 -128.238281 95.859375 -127.023438 91.265625 -125.265625 Z M 143.078125 -154.8125 C 144.828125 -155.757812 146.71875 -156.03125 148.75 -155.625 C 151.039062 -154.28125 157.347656 -148.242188 167.671875 -137.515625 C 177.992188 -126.785156 179.984375 -119.734375 173.640625 -116.359375 C 171.078125 -116.359375 169.1875 -117.507812 167.96875 -119.8125 C 165.945312 -122.375 163.65625 -124.664062 161.09375 -126.6875 C 153.664062 -132.082031 147.320312 -138.289062 142.0625 -145.3125 L 142.0625 -145.109375 C 139.769531 -149.015625 140.175781 -152.25 143.28125 -154.8125 Z M 143.078125 -154.8125 "/></g></g></g><g fill="rgb(30.198669%, 48.629761%, 17.248535%)" fill-opacity="1"><g transform="translate(618.80889, 223.520684)"><g><path d="M 74.671875 -162.3125 C 77.773438 -164.601562 81.210938 -164.46875 84.984375 -161.90625 C 88.765625 -159.34375 91.46875 -156.644531 93.09375 -153.8125 L 92.890625 -153.8125 C 100.578125 -147.0625 105.835938 -138.960938 108.671875 -129.515625 C 112.453125 -131.410156 118.523438 -133.707031 126.890625 -136.40625 C 135.253906 -139.101562 139.84375 -137.28125 140.65625 -130.9375 L 136.8125 -127.296875 C 130.601562 -121.492188 123.316406 -118.1875 114.953125 -117.375 C 109.015625 -116.695312 99.195312 -113.691406 85.5 -108.359375 C 71.8125 -103.035156 62 -99.226562 56.0625 -96.9375 C 46.882812 -94.238281 37.640625 -92.820312 28.328125 -92.6875 C 23.203125 -93.5 20.707031 -96.46875 20.84375 -101.59375 C 22.59375 -105.769531 26.101562 -107.1875 31.375 -105.84375 C 43.644531 -106.65625 55.273438 -109.351562 66.265625 -113.9375 C 77.265625 -118.519531 85.394531 -121.148438 90.65625 -121.828125 C 93.226562 -123.847656 94.914062 -126.613281 95.71875 -130.125 C 91.40625 -136.195312 86.550781 -141.796875 81.15625 -146.921875 C 78.457031 -146.648438 76.023438 -147.53125 73.859375 -149.5625 C 72.242188 -154.144531 72.515625 -158.457031 74.671875 -162.5 Z M 29.75 -51.203125 C 40.269531 -60.910156 50.050781 -71.234375 59.09375 -82.171875 L 58.890625 -82.171875 C 61.179688 -86.210938 64.859375 -91.773438 69.921875 -98.859375 C 74.984375 -105.941406 80.210938 -107.796875 85.609375 -104.421875 C 87.898438 -101.316406 86.648438 -96.894531 81.859375 -91.15625 C 77.066406 -85.425781 73.59375 -81.484375 71.4375 -79.328125 C 65.90625 -72.847656 58.585938 -64.445312 49.484375 -54.125 C 40.378906 -43.8125 32.789062 -36.695312 26.71875 -32.78125 C 23.34375 -31.164062 20.507812 -31.976562 18.21875 -35.21875 C 16.726562 -37.644531 17.601562 -40.78125 20.84375 -44.625 C 24.082031 -48.46875 27.050781 -50.660156 29.75 -51.203125 Z M 160.078125 -87.625 C 163.992188 -82.5 161.429688 -78.046875 152.390625 -74.265625 C 143.347656 -70.492188 137.816406 -72.382812 135.796875 -79.9375 C 128.640625 -83.039062 121.285156 -85.804688 113.734375 -88.234375 C 110.765625 -88.910156 105.941406 -90.492188 99.265625 -92.984375 C 92.585938 -95.484375 92.015625 -98.421875 97.546875 -101.796875 C 107.117188 -103.003906 116.425781 -101.046875 125.46875 -95.921875 C 136.9375 -92.816406 148.472656 -90.050781 160.078125 -87.625 Z M 122.640625 -3.03125 C 109.554688 -6.945312 96.941406 -12.273438 84.796875 -19.015625 L 83.578125 -18.015625 L 83.78125 -18.015625 C 80.675781 -13.828125 74.972656 -7.046875 66.671875 2.328125 C 58.378906 11.703125 52.34375 17.46875 48.5625 19.625 C 43.4375 21.382812 39.191406 20.644531 35.828125 17.40625 C 35.015625 13.894531 36.296875 11.867188 39.671875 11.328125 C 43.984375 10.253906 50.148438 5.03125 58.171875 -4.34375 C 66.203125 -13.726562 71.835938 -20.578125 75.078125 -24.890625 C 71.035156 -29.347656 66.382812 -31.910156 61.125 -32.578125 C 55.851562 -32.035156 53.488281 -33.617188 54.03125 -37.328125 C 54.570312 -41.046875 57.132812 -43.507812 61.71875 -44.71875 C 69.007812 -43.375 76.023438 -40.34375 82.765625 -35.625 C 86.003906 -40.207031 90.085938 -46.914062 95.015625 -55.75 C 99.941406 -64.59375 104.222656 -69.484375 107.859375 -70.421875 C 117.035156 -68.941406 117.101562 -62.363281 108.0625 -50.6875 C 99.03125 -39.019531 94.644531 -31.429688 94.90625 -27.921875 C 104.894531 -21.585938 119.234375 -15.820312 137.921875 -10.625 C 156.609375 -5.425781 172.222656 0.0703125 184.765625 5.875 C 187.328125 7.351562 190.765625 10.285156 195.078125 14.671875 C 199.398438 19.054688 198.457031 21.179688 192.25 21.046875 C 181.050781 17.398438 168.976562 12.878906 156.03125 7.484375 C 144.695312 3.847656 133.5 0.34375 122.4375 -3.03125 Z M 122.640625 -3.03125 "/></g></g></g><g fill="rgb(30.198669%, 48.629761%, 17.248535%)" fill-opacity="1"><g transform="translate(821.188484, 223.520684)"><g><path d="M 66.78125 -156.03125 C 68.539062 -157.507812 70.664062 -157.269531 73.15625 -155.3125 C 75.65625 -153.363281 76.226562 -151.914062 74.875 -150.96875 C 75.957031 -150.425781 77.101562 -150.019531 78.3125 -149.75 C 82.5 -151.644531 89.210938 -153.4375 98.453125 -155.125 C 107.691406 -156.8125 113.59375 -156.035156 116.15625 -152.796875 L 115.953125 -152.796875 C 118.117188 -147.671875 117.882812 -140.082031 115.25 -130.03125 C 112.625 -119.976562 112.253906 -111.914062 114.140625 -105.84375 C 115.222656 -102.195312 114.210938 -98.820312 111.109375 -95.71875 C 110.160156 -92.613281 108 -90.726562 104.625 -90.0625 C 101.25 -92.21875 99.226562 -93.226562 98.5625 -93.09375 C 98.019531 -91.601562 95.488281 -87.65625 90.96875 -81.25 C 86.445312 -74.84375 83.3125 -70.359375 81.5625 -67.796875 C 85.332031 -67.929688 88.835938 -68.671875 92.078125 -70.015625 C 96.535156 -70.421875 107.597656 -70.320312 125.265625 -69.71875 C 142.941406 -69.113281 153.738281 -68.335938 157.65625 -67.390625 C 160.351562 -66.441406 161.703125 -64.550781 161.703125 -61.71875 C 160.890625 -54.707031 156.535156 -41.21875 148.640625 -21.25 C 140.753906 -1.28125 134.648438 11.804688 130.328125 18.015625 L 129.109375 18.421875 C 121.015625 15.859375 113.664062 12.078125 107.0625 7.078125 L 107.0625 7.28125 C 105.976562 6.34375 103.546875 4.859375 99.765625 2.828125 C 95.992188 0.804688 93.5 -0.539062 92.28125 -1.21875 C 87.15625 7.28125 81.015625 14.972656 73.859375 21.859375 C 68.191406 21.453125 65.359375 19.660156 65.359375 16.484375 C 65.359375 13.316406 66.578125 11.53125 69.015625 11.125 C 74.273438 5.726562 78.722656 -0.539062 82.359375 -7.6875 C 91.265625 -22.257812 99.363281 -37.300781 106.65625 -52.8125 C 107.457031 -54.300781 107.925781 -55.785156 108.0625 -57.265625 C 104.289062 -58.484375 101.125 -58.351562 98.5625 -56.875 C 97.070312 -54.039062 95.25 -51.40625 93.09375 -48.96875 C 86.207031 -38.71875 79.796875 -27.925781 73.859375 -16.59375 L 73.859375 -16.796875 C 71.566406 -11.671875 68.195312 -8.835938 63.75 -8.296875 C 59.695312 -10.992188 58.820312 -14.164062 61.125 -17.8125 C 63.945312 -20.644531 68.289062 -27.285156 74.15625 -37.734375 C 80.03125 -48.191406 83.507812 -54.835938 84.59375 -57.671875 C 81.894531 -58.347656 78.925781 -58.550781 75.6875 -58.28125 L 48.765625 -31.171875 L 47.765625 -30.96875 C 44.390625 -32.3125 41.957031 -34.265625 40.46875 -36.828125 C 41.007812 -39.929688 42.765625 -41.890625 45.734375 -42.703125 C 48.972656 -44.316406 55.347656 -51.226562 64.859375 -63.4375 C 74.367188 -75.65625 79.460938 -83.445312 80.140625 -86.8125 C 75.421875 -82.5 70.429688 -80.070312 65.171875 -79.53125 C 62.335938 -82.5 61.425781 -88.03125 62.4375 -96.125 C 63.445312 -104.21875 63.476562 -109.953125 62.53125 -113.328125 C 61.988281 -115.078125 62.289062 -118.414062 63.4375 -123.34375 C 64.59375 -128.269531 64.695312 -132.757812 63.75 -136.8125 C 62.664062 -139.507812 62.800781 -141.9375 64.15625 -144.09375 C 63.476562 -143.550781 63.710938 -145.066406 64.859375 -148.640625 C 66.003906 -152.210938 66.644531 -154.675781 66.78125 -156.03125 Z M 105.234375 -145.5 C 94.984375 -144.425781 85.609375 -141.054688 77.109375 -135.390625 C 76.296875 -132.960938 75.820312 -130.46875 75.6875 -127.90625 C 75.414062 -126.550781 75.347656 -125.132812 75.484375 -123.65625 L 75.6875 -122.84375 L 75.890625 -122.640625 L 75.6875 -122.4375 C 83.78125 -125 90.796875 -127.019531 96.734375 -128.5 C 102.671875 -129.988281 105.570312 -135.59375 105.4375 -145.3125 Z M 74.671875 -96.9375 C 83.304688 -100.3125 91.804688 -103.820312 100.171875 -107.46875 L 99.96875 -107.46875 C 101.320312 -109.351562 102 -111.375 102 -113.53125 C 102.8125 -116.09375 102.132812 -117.578125 99.96875 -117.984375 C 97.539062 -117.984375 93.726562 -117.273438 88.53125 -115.859375 C 83.34375 -114.441406 79.671875 -113.125 77.515625 -111.90625 C 75.484375 -107.726562 74.535156 -102.738281 74.671875 -96.9375 Z M 148.75 -57.671875 C 139.570312 -59.023438 130.394531 -59.296875 121.21875 -58.484375 C 118.382812 -52.679688 115.6875 -46.8125 113.125 -40.875 C 107.457031 -30.082031 101.320312 -19.425781 94.71875 -8.90625 C 99.707031 -6.207031 105.035156 -4.179688 110.703125 -2.828125 C 115.828125 -1.347656 120.476562 0.804688 124.65625 3.640625 C 127.757812 -2.296875 132.550781 -13.15625 139.03125 -28.9375 C 145.507812 -44.726562 148.75 -54.304688 148.75 -57.671875 Z M 148.75 -57.671875 "/></g></g><g transform="translate(1023.568031, 223.520684)"><g><path d="M 126.484375 -161.09375 C 132.148438 -163.25 137.410156 -162.707031 142.265625 -159.46875 C 144.296875 -156.5 143.421875 -154.003906 139.640625 -151.984375 C 133.972656 -148.472656 121.625 -144.117188 102.59375 -138.921875 C 83.570312 -133.734375 70.21875 -131.003906 62.53125 -130.734375 C 57.40625 -131.140625 53.457031 -132.894531 50.6875 -136 C 47.925781 -139.101562 49.582031 -141.734375 55.65625 -143.890625 C 58.082031 -144.703125 60.507812 -144.632812 62.9375 -143.6875 C 66.851562 -142.332031 72.957031 -142.800781 81.25 -145.09375 C 89.550781 -147.394531 95.65625 -149.285156 99.5625 -150.765625 C 108.601562 -154.546875 117.578125 -157.988281 126.484375 -161.09375 Z M 132.359375 -127.703125 C 136.265625 -129.046875 140.3125 -128.773438 144.5 -126.890625 L 144.296875 -126.890625 C 148.203125 -122.703125 144.722656 -114.84375 133.859375 -103.3125 C 123.003906 -91.78125 116.703125 -83.179688 114.953125 -77.515625 C 117.648438 -75.347656 121.425781 -74.738281 126.28125 -75.6875 C 139.5 -76.226562 152.65625 -77.238281 165.75 -78.71875 C 171.550781 -79.125 175.867188 -76.492188 178.703125 -70.828125 C 172.628906 -64.085938 165.070312 -61.863281 156.03125 -64.15625 L 156.234375 -64.15625 C 152.179688 -64.832031 145.195312 -65 135.28125 -64.65625 C 125.363281 -64.320312 118.722656 -64.019531 115.359375 -63.75 C 113.867188 -47.289062 113.125 -30.765625 113.125 -14.171875 C 113.394531 -10.117188 113.460938 -2.664062 113.328125 8.1875 C 113.191406 19.050781 111.101562 25.160156 107.0625 26.515625 C 101.789062 23.679688 99.898438 18.550781 101.390625 11.125 C 101.523438 -13.832031 101.523438 -38.722656 101.390625 -63.546875 C 78.453125 -59.359375 55.445312 -56.320312 32.375 -54.4375 C 26.4375 -54.164062 23.671875 -56.726562 24.078125 -62.125 C 27.585938 -66.71875 37.84375 -69.179688 54.84375 -69.515625 C 71.84375 -69.847656 82.703125 -71.835938 87.421875 -75.484375 C 88.503906 -78.453125 91 -79.734375 94.90625 -79.328125 C 99.5 -79.867188 101.960938 -82.800781 102.296875 -88.125 C 102.640625 -93.457031 102.675781 -98.082031 102.40625 -102 C 102.132812 -106.445312 102.164062 -111.671875 102.5 -117.671875 C 102.84375 -123.679688 105.644531 -126.957031 110.90625 -127.5 C 116.4375 -126.820312 118.726562 -123.007812 117.78125 -116.0625 C 116.832031 -109.113281 115.890625 -103.28125 114.953125 -98.5625 C 116.296875 -99.769531 117.375 -101.117188 118.1875 -102.609375 L 118.1875 -102.40625 C 119.664062 -105.507812 121.625 -108.273438 124.0625 -110.703125 L 123.859375 -110.5 C 128.441406 -116.164062 131.273438 -121.898438 132.359375 -127.703125 Z M 72.453125 -74.46875 C 70.554688 -78.925781 67.890625 -86.851562 64.453125 -98.25 C 61.015625 -109.65625 59.96875 -116.972656 61.3125 -120.203125 C 64.6875 -122.097656 67.925781 -121.695312 71.03125 -119 C 72.789062 -116.4375 75.390625 -109.820312 78.828125 -99.15625 C 82.265625 -88.5 83.578125 -81.21875 82.765625 -77.3125 C 80.066406 -73.257812 76.628906 -72.3125 72.453125 -74.46875 Z M 72.453125 -74.46875 "/></g></g><g transform="translate(1225.947577, 223.520684)"><g><path d="M 49.578125 -89.859375 C 53.628906 -91.066406 57.8125 -91.941406 62.125 -92.484375 C 79.125 -95.585938 95.851562 -99.632812 112.3125 -104.625 C 117.707031 -106.644531 122.972656 -107.789062 128.109375 -108.0625 L 129.3125 -108.46875 C 127.96875 -110.894531 125.40625 -114.398438 121.625 -118.984375 C 117.84375 -123.578125 118.113281 -127.492188 122.4375 -130.734375 L 122.4375 -130.53125 C 127.289062 -132.28125 130.734375 -130.59375 132.765625 -125.46875 C 134.648438 -121.289062 138.492188 -115.925781 144.296875 -109.375 C 150.097656 -102.832031 154.953125 -97.539062 158.859375 -93.5 L 158.859375 -93.703125 C 161.554688 -90.867188 165.570312 -86.6875 170.90625 -81.15625 C 176.238281 -75.625 178.363281 -71.304688 177.28125 -68.203125 L 177.28125 -68.40625 C 173.769531 -62.332031 169.585938 -61.453125 164.734375 -65.765625 L 164.734375 -65.5625 C 159.335938 -72.3125 153.804688 -79.265625 148.140625 -86.421875 L 148.34375 -86.421875 C 144.289062 -91.953125 139.097656 -95.050781 132.765625 -95.71875 C 127.492188 -95.050781 111.429688 -91.613281 84.578125 -85.40625 C 57.734375 -79.195312 40.265625 -75.015625 32.171875 -72.859375 C 26.503906 -70.828125 23.804688 -72.914062 24.078125 -79.125 C 23.804688 -82.5 25.085938 -84.796875 27.921875 -86.015625 C 35.484375 -91.941406 42.566406 -98.617188 49.171875 -106.046875 L 48.96875 -106.046875 C 60.570312 -117.648438 71.90625 -129.585938 82.96875 -141.859375 C 94.707031 -151.035156 99.703125 -149.617188 97.953125 -137.609375 C 95.253906 -133.296875 87.796875 -125.472656 75.578125 -114.140625 C 63.367188 -102.804688 54.703125 -94.710938 49.578125 -89.859375 Z M 148.34375 -57.0625 C 153.195312 -53.289062 154.679688 -48.707031 152.796875 -43.3125 C 149.421875 -31.84375 145.171875 -20.710938 140.046875 -9.921875 C 142.609375 -4.117188 139.738281 -0.00390625 131.4375 2.421875 C 123.144531 4.859375 117.109375 6.34375 113.328125 6.875 L 113.53125 6.875 C 103.6875 6.476562 95.117188 7.894531 87.828125 11.125 C 86.078125 12.882812 84.054688 14.367188 81.765625 15.578125 C 77.847656 14.773438 75.6875 12.210938 75.28125 7.890625 C 75.007812 4.109375 73.320312 -1.691406 70.21875 -9.515625 C 67.113281 -17.335938 64.617188 -23.140625 62.734375 -26.921875 L 62.734375 -26.71875 C 58.148438 -31.570312 57.140625 -36.5625 59.703125 -41.6875 C 62.671875 -43.976562 65.601562 -44.25 68.5 -42.5 C 71.40625 -40.75 74.675781 -39.9375 78.3125 -40.0625 C 85.332031 -41.957031 92.28125 -43.914062 99.15625 -45.9375 C 115.351562 -49.039062 131.34375 -52.816406 147.125 -57.265625 Z M 137.8125 -41.078125 C 136.0625 -41.484375 134.3125 -41.414062 132.5625 -40.875 C 117.988281 -38.3125 103.6875 -34.601562 89.65625 -29.75 C 85.0625 -28.53125 81.550781 -26.4375 79.125 -23.46875 L 78.921875 -23.671875 C 80.273438 -21.242188 81.359375 -18.75 82.171875 -16.1875 L 81.96875 -16.1875 L 82.96875 -13.96875 C 83.78125 -11.132812 85.128906 -8.503906 87.015625 -6.078125 C 90.117188 -7.148438 96.457031 -7.210938 106.03125 -6.265625 C 115.613281 -5.328125 122.972656 -8.5 128.109375 -15.78125 C 129.046875 -17.8125 130.828125 -22.097656 133.453125 -28.640625 C 136.085938 -35.179688 137.539062 -39.328125 137.8125 -41.078125 Z M 137.8125 -41.078125 "/></g></g></g></svg>